<?xml version="1.0" encoding="UTF-8"?>
<svg version="1.1" xmlns="http://www.w3.org/2000/svg" width="1024" height="1024">
<path d="M0 0 C337.92 0 675.84 0 1024 0 C1024 337.92 1024 675.84 1024 1024 C686.08 1024 348.16 1024 0 1024 C0 686.08 0 348.16 0 0 Z " fill="#005373" transform="translate(0,0)"/>
<path d="M0 0 C0.75700195 0.02658691 1.51400391 0.05317383 2.29394531 0.08056641 C33.35743314 1.61098079 63.74419036 20.39840952 84.4375 42.6171875 C106.87751018 68.87511608 117.27967601 102.54099549 114.71875 136.7578125 C113.87729691 144.24998137 112.28459876 151.49557992 110.5 158.8125 C110.28641846 159.69147949 110.07283691 160.57045898 109.8527832 161.47607422 C109.64355225 162.29479004 109.43432129 163.11350586 109.21875 163.95703125 C109.03248047 164.68897705 108.84621094 165.42092285 108.65429688 166.17504883 C108 168 108 168 106 170 C88.97793621 158.95728598 72.80610634 147.99430188 59.41894531 132.59326172 C57.37228957 130.2951758 55.20183872 128.14902709 53 126 C51.68 127.98 50.36 129.96 49 132 C47.0625 131.625 47.0625 131.625 45 131 C44.67 130.34 44.34 129.68 44 129 C43.05511719 128.77183594 42.11023438 128.54367187 41.13671875 128.30859375 C38 127 38 127 36.20703125 123.91015625 C35.71746026 122.63683783 35.25364934 121.35339381 34.8125 120.0625 C34.5654834 119.39532959 34.3184668 118.72815918 34.06396484 118.04077148 C32.03687509 112.448546 30.42393655 106.77485379 29 101 C25.37 103.64 21.74 106.28 18 109 C14.6276979 104.5035972 14.6276979 104.5035972 13.44116211 101.27978516 C13.17335434 100.56448639 12.90554657 99.84918762 12.62962341 99.11221313 C12.34837112 98.34557343 12.06711884 97.57893372 11.77734375 96.7890625 C11.14991561 95.13380085 10.52163097 93.47886365 9.89257812 91.82421875 C8.91860153 89.24331447 7.95064796 86.6607425 6.99829102 84.07177734 C1.48918933 69.153274 -5.10280436 56.86265689 -17 46 C-19.92295725 51.51337836 -22.82972921 57.03500114 -25.72216797 62.56445312 C-26.78716149 64.59432996 -27.86242096 66.61817915 -28.94140625 68.640625 C-34.1994421 78.74190966 -38.09596385 89.31704013 -42 100 C-42.66 100 -43.32 100 -44 100 C-44 99.34 -44 98.68 -44 98 C-44.57234375 97.73445313 -45.1446875 97.46890625 -45.734375 97.1953125 C-48.1076012 95.94323109 -50.12213286 94.5063648 -52.25 92.875 C-52.95640625 92.33617187 -53.6628125 91.79734375 -54.390625 91.2421875 C-54.92171875 90.83226562 -55.4528125 90.42234375 -56 90 C-56.22429687 90.78632813 -56.44859375 91.57265625 -56.6796875 92.3828125 C-58.40996423 97.12315644 -60.73873891 101.43668806 -63.125 105.875 C-63.82689453 107.19371094 -63.82689453 107.19371094 -64.54296875 108.5390625 C-65.6912093 110.69494271 -66.84363903 112.84846777 -68 115 C-71.1827991 113.51127139 -72.7880313 112.31795304 -74.75 109.375 C-75.17796875 108.74335938 -75.6059375 108.11171875 -76.046875 107.4609375 C-76.36140625 106.97882813 -76.6759375 106.49671875 -77 106 C-81.21846412 110.05256946 -84.92891848 114.4077581 -88.625 118.9375 C-89.24181641 119.69039307 -89.85863281 120.44328613 -90.49414062 121.21899414 C-95.58284046 127.44896779 -100.58239756 133.74407809 -105.51806641 140.09570312 C-107.17807959 142.22883374 -108.8447692 144.35666096 -110.51171875 146.484375 C-116.35610729 153.95782075 -122.15339329 161.41773898 -127.546875 169.2265625 C-128.02640625 169.81179688 -128.5059375 170.39703125 -129 171 C-129.66 171 -130.32 171 -131 171 C-131.81529181 166.8130386 -132.62673418 162.62533997 -133.4375 158.4375 C-133.66759766 157.25607422 -133.89769531 156.07464844 -134.13476562 154.85742188 C-134.35712891 153.70693359 -134.57949219 152.55644531 -134.80859375 151.37109375 C-135.01282959 150.31849365 -135.21706543 149.26589355 -135.42749023 148.18139648 C-141.23984243 115.88256431 -136.08878155 84.65150006 -117.86181641 57.29150391 C-112.81725341 50.03706716 -107.06229296 43.41283371 -101 37 C-100.24203125 36.17757812 -99.4840625 35.35515625 -98.703125 34.5078125 C-72.52855265 7.05017287 -36.76532325 -1.32374331 0 0 Z " fill="#63C9EA" transform="translate(526,256)"/>
<path d="M0 0 C8.92552621 8.92552621 12.44031877 22.01786979 16.6875 33.6875 C17.26046463 35.24306081 17.83402943 36.79840069 18.40820312 38.35351562 C21.05155418 45.53340924 23.64518766 52.7192198 26 60 C24.42173185 61.46381359 22.83717771 62.92085163 21.25 64.375 C20.36828125 65.18710937 19.4865625 65.99921875 18.578125 66.8359375 C16.40197479 68.6625848 14.59179881 69.89787994 12 71 C12 71.66 12 72.32 12 73 C14.64 73.33 17.28 73.66 20 74 C18.84029131 79.99182825 17.21028382 85.32346219 14.8046875 90.93359375 C13.87904292 92.94102035 13.87904292 92.94102035 14 95 C21.66661624 85.12387586 21.66661624 85.12387586 29 75 C27.68 74.34 26.36 73.68 25 73 C26.43411456 69.69050485 28.20973364 67.60335115 30.8125 65.125 C33.33394885 62.68134539 35.69182827 60.25014469 37.875 57.5 C38.57625 56.675 39.2775 55.85 40 55 C40.66 55 41.32 55 42 55 C42.50660156 56.66289062 42.50660156 56.66289062 43.0234375 58.359375 C43.47377534 59.82297298 43.92430633 61.28651155 44.375 62.75 C44.59671875 63.47960937 44.8184375 64.20921875 45.046875 64.9609375 C46.12929356 68.46287989 47.19171724 71.78903061 49 75 C46.525 77.97 46.525 77.97 44 81 C45.48518799 85.04301175 47.42877998 88.61146256 49.625 92.3125 C50.25664063 93.38113281 50.88828125 94.44976562 51.5390625 95.55078125 C52.26222656 96.76314453 52.26222656 96.76314453 53 98 C53.02578125 96.80761719 53.0515625 95.61523438 53.078125 94.38671875 C53.13440439 92.8202758 53.19175177 91.25387097 53.25 89.6875 C53.26417969 88.90181641 53.27835938 88.11613281 53.29296875 87.30664062 C53.53912927 81.52186832 53.53912927 81.52186832 55.859375 78.89453125 C58 78 58 78 61 79 C61 79.66 61 80.32 61 81 C61.721875 80.484375 62.44375 79.96875 63.1875 79.4375 C66.53012197 77.72904877 67.49099919 77.92186245 71 79 C72.81420898 80.34765625 72.81420898 80.34765625 74.49609375 82.0625 C75.13039307 82.6905957 75.76469238 83.31869141 76.41821289 83.96582031 C77.08457764 84.63709961 77.75094238 85.30837891 78.4375 86 C88.26110701 95.55712338 100.15532907 105.88513085 114.4375 106.6875 C115.48808594 106.75324219 116.53867187 106.81898438 117.62109375 106.88671875 C118.40613281 106.92410156 119.19117188 106.96148437 120 107 C115.95904849 111.28706054 111.53093031 114.73721717 106.8125 118.25 C96.16634453 126.30914421 86.86788213 135.00551106 77.8828125 144.86328125 C75.65146951 147.30959687 73.36756198 149.68390676 71 152 C68.36 149.69 65.72 147.38 63 145 C62.75894531 145.83917969 62.51789063 146.67835938 62.26953125 147.54296875 C60.82291677 151.48221125 58.89935387 154.76654088 56.6875 158.3125 C55.87908535 159.63212521 55.07178943 160.95243642 54.265625 162.2734375 C53.87697266 162.90862305 53.48832031 163.54380859 53.08789062 164.19824219 C50.95044996 167.73825837 48.96256147 171.36087849 47 175 C46.52949219 174.59007812 46.05898438 174.18015625 45.57421875 173.7578125 C44.95160156 173.21898437 44.32898438 172.68015625 43.6875 172.125 C42.76517578 171.32449219 42.76517578 171.32449219 41.82421875 170.5078125 C39.86501788 168.8359553 39.86501788 168.8359553 37 167 C36.87625 167.55042969 36.7525 168.10085938 36.625 168.66796875 C31.10064022 190.93804412 21.06515445 216.18762906 5 233 C4.34 233 3.68 233 3 233 C1.19929675 230.45131232 -0.44906371 227.91531865 -2.0625 225.25 C-2.79569458 224.0439209 -2.79569458 224.0439209 -3.54370117 222.81347656 C-8.40697583 214.62086901 -12.29145038 206.08204224 -16.00976562 197.32275391 C-16.95050111 195.11610761 -17.91524409 192.92198263 -18.890625 190.73046875 C-23 181.41789811 -23 181.41789811 -23 178 C-23.66 178 -24.32 178 -25 178 C-25.33 178.99 -25.66 179.98 -26 181 C-27.7421875 182.82421875 -27.7421875 182.82421875 -29.875 184.6875 C-30.92300781 185.62142578 -30.92300781 185.62142578 -31.9921875 186.57421875 C-34 188 -34 188 -37 188 C-38.62573242 185.796875 -38.62573242 185.796875 -40.35546875 182.75 C-40.97744141 181.6671875 -41.59941406 180.584375 -42.24023438 179.46875 C-42.88283203 178.3240625 -43.52542969 177.179375 -44.1875 176 C-44.84169922 174.8553125 -45.49589844 173.710625 -46.16992188 172.53125 C-47.79005999 169.69305184 -49.39948218 166.8492943 -51 164 C-53.07453738 166.58232164 -55.12800962 169.16942449 -57.125 171.8125 C-57.74375 172.534375 -58.3625 173.25625 -59 174 C-59.66 174 -60.32 174 -61 174 C-62.60142323 172.09585026 -64.08917394 170.18747245 -65.5625 168.1875 C-66.46736097 166.98463093 -67.37363616 165.78282453 -68.28125 164.58203125 C-68.73757813 163.97697754 -69.19390625 163.37192383 -69.6640625 162.74853516 C-72.28362586 159.31993268 -75.04147709 156.00571194 -77.7890625 152.6796875 C-79.27327184 150.8808048 -80.74713589 149.0733403 -82.2109375 147.2578125 C-86.0159279 142.54496474 -89.90076895 137.96036887 -94 133.5 C-114 111.72981366 -114 111.72981366 -114 107 C-113.07058594 107.020625 -112.14117187 107.04125 -111.18359375 107.0625 C-109.94738281 107.041875 -108.71117187 107.02125 -107.4375 107 C-106.21933594 107 -105.00117188 107 -103.74609375 107 C-98.34078796 105.55708208 -96.2513374 102.37656306 -93 98 C-92.23683472 97.00734131 -92.23683472 97.00734131 -91.45825195 95.99462891 C-89.91730426 93.95665819 -88.4223235 91.89167828 -86.9375 89.8125 C-86.39456299 89.05727051 -85.85162598 88.30204102 -85.29223633 87.52392578 C-78.62460831 78.17728073 -72.3035231 68.59436442 -66 59 C-62.79389135 60.5325904 -60.39870901 62.24116189 -57.75 64.625 C-56.69039063 65.57246094 -56.69039063 65.57246094 -55.609375 66.5390625 C-55.07828125 67.02117187 -54.5471875 67.50328125 -54 68 C-53.76539063 67.46890625 -53.53078125 66.9378125 -53.2890625 66.390625 C-51.61297088 63.2822369 -49.51548074 60.54600297 -47.375 57.75 C-46.95476562 57.19570313 -46.53453125 56.64140625 -46.1015625 56.0703125 C-45.07061281 54.71133337 -44.03570089 53.35536165 -43 52 C-41.53873225 54.9225355 -42.58710979 56.45231776 -43.58203125 59.5234375 C-44.11473633 61.17859375 -44.11473633 61.17859375 -44.65820312 62.8671875 C-45.03912109 64.02476562 -45.42003906 65.18234375 -45.8125 66.375 C-46.18181641 67.52484375 -46.55113281 68.6746875 -46.93164062 69.859375 C-49.95743946 79.18122562 -49.95743946 79.18122562 -52 83 C-55.92488093 79.29939798 -59.02215543 75.5093075 -62 71 C-62 70.34 -62 69.68 -62 69 C-62.66 69 -63.32 69 -64 69 C-64.25974609 69.8544873 -64.51949219 70.70897461 -64.78710938 71.58935547 C-66.04895076 75.13764938 -67.61181596 78.26092895 -69.40625 81.5703125 C-69.73161743 82.17382538 -70.05698486 82.77733826 -70.39221191 83.3991394 C-71.42368003 85.31021271 -72.46161675 87.21767679 -73.5 89.125 C-74.53691435 91.04023045 -75.57249683 92.95617572 -76.60778809 94.87228394 C-77.54560605 96.60629507 -78.4865853 98.33859537 -79.42773438 100.07080078 C-80.65871685 102.36417465 -81.85466441 104.66314593 -83 107 C-78.3394508 107.10524069 -73.68464231 107.14311633 -69.02294922 107.12207031 C-67.44209652 107.12400171 -65.86115436 107.14345576 -64.28076172 107.18164062 C-54.53467844 107.5052792 -54.53467844 107.5052792 -45.77246094 103.83886719 C-43.25286486 101.34491585 -41.09381953 98.85640717 -39 96 C-38.13109131 94.84975342 -38.13109131 94.84975342 -37.24462891 93.67626953 C-36.83390137 93.12310059 -36.42317383 92.56993164 -36 92 C-37.3024333 89.09457188 -38.70886268 87.1907039 -41 85 C-36.76567272 83.42931142 -32.52981835 81.86284151 -28.29248047 80.30029297 C-26.85064416 79.76792764 -25.40923508 79.23440373 -23.96826172 78.69970703 C-21.8992202 77.93218234 -19.82868749 77.1688116 -17.7578125 76.40625 C-17.11192169 76.16563843 -16.46603088 75.92502686 -15.80056763 75.67712402 C-11.22774341 74 -11.22774341 74 -9 74 C-9.12117188 73.38479492 -9.24234375 72.76958984 -9.3671875 72.13574219 C-9.91533595 69.34123922 -10.45772483 66.54564835 -11 63.75 C-11.19078125 62.78191406 -11.3815625 61.81382812 -11.578125 60.81640625 C-11.75859375 59.88183594 -11.9390625 58.94726562 -12.125 57.984375 C-12.29257812 57.12553711 -12.46015625 56.26669922 -12.6328125 55.38183594 C-13 53 -13 53 -13 49 C-11.58461283 48.66127487 -10.16762037 48.32925376 -8.75 48 C-7.96109375 47.814375 -7.1721875 47.62875 -6.359375 47.4375 C-4 47 -4 47 0 47 C0 31.49 0 15.98 0 0 Z " fill="#36ACDA" transform="translate(511,321)"/>
<path d="M0 0 C8.92552621 8.92552621 12.44031877 22.01786979 16.6875 33.6875 C17.26046463 35.24306081 17.83402943 36.79840069 18.40820312 38.35351562 C21.05155418 45.53340924 23.64518766 52.7192198 26 60 C24.42173185 61.46381359 22.83717771 62.92085163 21.25 64.375 C20.36828125 65.18710937 19.4865625 65.99921875 18.578125 66.8359375 C16.40197479 68.6625848 14.59179881 69.89787994 12 71 C12 71.66 12 72.32 12 73 C14.64 73.33 17.28 73.66 20 74 C18.84029131 79.99182825 17.21028382 85.32346219 14.8046875 90.93359375 C13.87904292 92.94102035 13.87904292 92.94102035 14 95 C21.66661624 85.12387586 21.66661624 85.12387586 29 75 C27.02 74.01 27.02 74.01 25 73 C26.43411456 69.69050485 28.20973364 67.60335115 30.8125 65.125 C33.33394885 62.68134539 35.69182827 60.25014469 37.875 57.5 C38.57625 56.675 39.2775 55.85 40 55 C40.66 55 41.32 55 42 55 C42.50660156 56.66289062 42.50660156 56.66289062 43.0234375 58.359375 C43.47377534 59.82297298 43.92430633 61.28651155 44.375 62.75 C44.59671875 63.47960937 44.8184375 64.20921875 45.046875 64.9609375 C46.12929356 68.46287989 47.19171724 71.78903061 49 75 C46.525 77.97 46.525 77.97 44 81 C45.48518799 85.04301175 47.42877998 88.61146256 49.625 92.3125 C50.25664063 93.38113281 50.88828125 94.44976562 51.5390625 95.55078125 C52.02117187 96.35902344 52.50328125 97.16726563 53 98 C53.02578125 96.80761719 53.0515625 95.61523438 53.078125 94.38671875 C53.13440439 92.8202758 53.19175177 91.25387097 53.25 89.6875 C53.26417969 88.90181641 53.27835938 88.11613281 53.29296875 87.30664062 C53.53912927 81.52186832 53.53912927 81.52186832 55.859375 78.89453125 C58 78 58 78 61 79 C61 79.66 61 80.32 61 81 C61.721875 80.484375 62.44375 79.96875 63.1875 79.4375 C66.53012197 77.72904877 67.49099919 77.92186245 71 79 C72.81420898 80.34765625 72.81420898 80.34765625 74.49609375 82.0625 C75.13063477 82.69067627 75.76517578 83.31885254 76.41894531 83.96606445 C77.08506836 84.63726318 77.75119141 85.30846191 78.4375 86 C86.45724199 93.81822694 94.8411545 100.14249378 105 105 C105 105.33 105 105.66 105 106 C54.51 106 4.02 106 -48 106 C-42 99 -42 99 -36 92 C-37.3024333 89.09457188 -38.70886268 87.1907039 -41 85 C-36.76567272 83.42931142 -32.52981835 81.86284151 -28.29248047 80.30029297 C-26.85064416 79.76792764 -25.40923508 79.23440373 -23.96826172 78.69970703 C-21.8992202 77.93218234 -19.82868749 77.1688116 -17.7578125 76.40625 C-17.11192169 76.16563843 -16.46603088 75.92502686 -15.80056763 75.67712402 C-11.22774341 74 -11.22774341 74 -9 74 C-9.12117188 73.38479492 -9.24234375 72.76958984 -9.3671875 72.13574219 C-9.91533595 69.34123922 -10.45772483 66.54564835 -11 63.75 C-11.19078125 62.78191406 -11.3815625 61.81382812 -11.578125 60.81640625 C-11.75859375 59.88183594 -11.9390625 58.94726562 -12.125 57.984375 C-12.37636719 56.69611816 -12.37636719 56.69611816 -12.6328125 55.38183594 C-13 53 -13 53 -13 49 C-11.58461283 48.66127487 -10.16762037 48.32925376 -8.75 48 C-7.96109375 47.814375 -7.1721875 47.62875 -6.359375 47.4375 C-4 47 -4 47 0 47 C0 31.49 0 15.98 0 0 Z " fill="#35AAD8" transform="translate(511,321)"/>
<path d="M0 0 C50.82 0 101.64 0 154 0 C151.07944794 2.19041405 148.3553881 3.96626672 145.17773438 5.70117188 C135.08332714 11.22411408 126.39648431 17.22325976 120 27 C117.13275314 26.42655063 116.1385485 26.1385485 114 24 C112.06874034 24.3574765 112.06874034 24.3574765 110 25 C106 25 106 25 103.23828125 23.421875 C101 21 101 21 100.73046875 17.765625 C100.95669922 16.02539062 100.95669922 16.02539062 101.1875 14.25 C101.32542969 13.07953125 101.46335937 11.9090625 101.60546875 10.703125 C101.73566406 9.81109375 101.86585938 8.9190625 102 8 C100.63354299 10.59836136 99.28169331 13.20265556 97.9375 15.8125 C97.35258789 16.91948242 97.35258789 16.91948242 96.75585938 18.04882812 C96.39169922 18.76103516 96.02753906 19.47324219 95.65234375 20.20703125 C95.31195068 20.8616333 94.97155762 21.51623535 94.62084961 22.19067383 C93.72812283 24.19606112 93.72812283 24.19606112 95 27 C97.49759982 28.69882448 97.49759982 28.69882448 100 30 C97.80962826 36.72045875 95.44234339 43.36724003 93 50 C88.38448363 47.85719608 84.73914686 44.75617278 80.8125 41.5625 C80.07580078 40.97662109 79.33910156 40.39074219 78.58007812 39.78710938 C77.52916992 38.93536133 77.52916992 38.93536133 76.45703125 38.06640625 C75.81741455 37.55021729 75.17779785 37.03402832 74.51879883 36.50219727 C73 35 73 35 72 32 C72.93849216 30.13599023 74.08907617 28.52454618 75.28515625 26.81640625 C76.24836368 24.9803973 76.24836368 24.9803973 75.22363281 23.07983398 C74.02083351 21.03541115 72.81544385 19.57124375 71.13671875 17.90625 C70.57919922 17.35066406 70.02167969 16.79507812 69.44726562 16.22265625 C68.57618164 15.36994141 68.57618164 15.36994141 67.6875 14.5 C67.11837891 13.93152344 66.54925781 13.36304688 65.96289062 12.77734375 C62.7879178 9.63517776 59.55335385 6.72001571 56 4 C56.68707031 5.08539063 57.37414062 6.17078125 58.08203125 7.2890625 C58.99233279 8.7342835 59.90248092 10.17960113 60.8125 11.625 C61.26431641 12.33785156 61.71613281 13.05070312 62.18164062 13.78515625 C64.6837017 17.76653811 66.97971097 21.74464038 69 26 C67.02 28.64 65.04 31.28 63 34 C66.70090521 37.9252025 70.54959656 40.94580156 75 44 C74.42645946 50.49143614 73.30116038 56.49163975 71.5 62.75 C71.24226807 63.6481543 70.98453613 64.54630859 70.71899414 65.47167969 C66.68931757 78.94843585 61.02281466 91.82297693 54 104 C53.67 104 53.34 104 53 104 C52.82947346 94.2089344 53.3673777 84.51318772 54 74.75 C54.09669629 73.21486526 54.19305266 71.67970907 54.2890625 70.14453125 C54.522133 66.4294326 54.75976851 62.7146433 55 59 C54.3709375 58.89042969 53.741875 58.78085937 53.09375 58.66796875 C52.2378125 58.50941406 51.381875 58.35085938 50.5 58.1875 C49.6646875 58.03667969 48.829375 57.88585937 47.96875 57.73046875 C44.2186796 56.80775406 40.6160289 55.35601084 37 54 C38.65 47.07 40.3 40.14 42 33 C40.618125 32.67 39.23625 32.34 37.8125 32 C31.71650772 30.3440021 25.84328481 28.17166055 19.9375 25.9375 C18.99688721 25.58494141 18.05627441 25.23238281 17.0871582 24.86914062 C15.75817505 24.35963867 15.75817505 24.35963867 14.40234375 23.83984375 C13.20339478 23.38146118 13.20339478 23.38146118 11.98022461 22.91381836 C10 22 10 22 8 20 C9.32 18.68 10.64 17.36 12 16 C10.3911908 12.10742142 7.7274041 9.32869761 4.875 6.3125 C0 1.12190083 0 1.12190083 0 0 Z " fill="#005272" transform="translate(463,428)"/>
<path d="M0 0 C6.4797808 3.90151012 10.31811348 10.72081072 12.87109375 17.6640625 C15.2299041 27.33918291 14.32402259 38.10874037 9.23828125 46.75 C5.47308171 52.12603294 1.17607424 56.19436818 -5.4375 57.5 C-11.77958104 58.06086431 -17.91470028 57.9488853 -23.4375 54.5 C-30.50761632 48.06874961 -34.09253305 41.13257514 -34.67578125 31.609375 C-34.97661515 19.80130711 -33.594254 12.01353048 -25.203125 3.1640625 C-18.64737859 -3.01458345 -8.19149346 -3.55122549 0 0 Z " fill="#65CCEB" transform="translate(779.4375,581.5)"/>
<path d="M0 0 C0.71397949 0.00217529 1.42795898 0.00435059 2.16357422 0.0065918 C4.32571658 0.00973374 6.48646623 -0.01363626 8.6484375 -0.0390625 C10.03255037 -0.04133748 11.41666689 -0.04203806 12.80078125 -0.04101562 C14.05536133 -0.04399658 15.30994141 -0.04697754 16.60253906 -0.05004883 C21.05475129 0.42421938 24.45010472 1.78428997 27.7421875 4.85742188 C31.59448097 9.89503641 32.32617969 12.8244099 32.41015625 19.07226562 C32.43916016 19.77609375 32.46816406 20.47992187 32.49804688 21.20507812 C32.57150958 27.28552945 30.45436006 30.602992 26.47265625 35.19726562 C25.09765625 36.32226562 25.09765625 36.32226562 23.09765625 36.32226562 C23.97126381 37.8353179 24.87243388 39.33248201 25.78515625 40.82226562 C26.28402344 41.65757812 26.78289062 42.49289062 27.296875 43.35351562 C28.96150063 45.61101603 28.96150063 45.61101603 31.8046875 45.60351562 C32.56136719 45.51070312 33.31804687 45.41789063 34.09765625 45.32226562 C36.69784441 49.22254787 36.24851139 52.79661132 36.09765625 57.32226562 C30.41540056 59.21635086 24.38546198 59.18558854 18.78515625 57.07226562 C14.01096296 52.18704458 11.24470119 45.76340045 9.09765625 39.32226562 C5.63265625 38.82726562 5.63265625 38.82726562 2.09765625 38.32226562 C2.12085938 39.5984375 2.1440625 40.87460937 2.16796875 42.18945312 C2.18672454 43.85871812 2.20492494 45.52798943 2.22265625 47.19726562 C2.23941406 48.03902344 2.25617188 48.88078125 2.2734375 49.74804688 C2.27988281 50.55371094 2.28632813 51.359375 2.29296875 52.18945312 C2.30344238 52.93308105 2.31391602 53.67670898 2.32470703 54.44287109 C2.09765625 56.32226562 2.09765625 56.32226562 0.09765625 58.32226562 C-2.43359375 58.58789062 -2.43359375 58.58789062 -5.40234375 58.57226562 C-6.38203125 58.57742188 -7.36171875 58.58257813 -8.37109375 58.58789062 C-10.90234375 58.32226562 -10.90234375 58.32226562 -12.90234375 56.32226562 C-13.15631104 54.04516602 -13.15631104 54.04516602 -13.16113281 51.16992188 C-13.16743713 50.09540771 -13.17374146 49.02089355 -13.18023682 47.91381836 C-13.17618835 46.74923096 -13.17213989 45.58464355 -13.16796875 44.38476562 C-13.1698822 43.19375244 -13.17179565 42.00273926 -13.17376709 40.77563477 C-13.17513005 38.25374134 -13.17142591 35.73184094 -13.16308594 33.20996094 C-13.15238828 29.33838214 -13.16297781 25.4672674 -13.17578125 21.59570312 C-13.17445968 19.1503896 -13.17189733 16.70507636 -13.16796875 14.25976562 C-13.17201721 13.09517822 -13.17606567 11.93059082 -13.18023682 10.73071289 C-13.1739325 9.65619873 -13.16762817 8.58168457 -13.16113281 7.47460938 C-13.15954163 6.52577881 -13.15795044 5.57694824 -13.15631104 4.59936523 C-12.43215648 -1.89348702 -4.96351055 0.02005655 0 0 Z " fill="#65CCEC" transform="translate(324.90234375,580.677734375)"/>
<path d="M0 0 C1.17175781 -0.05607422 1.17175781 -0.05607422 2.3671875 -0.11328125 C3.12 -0.12488281 3.8728125 -0.13648438 4.6484375 -0.1484375 C5.68363525 -0.1781665 5.68363525 -0.1781665 6.73974609 -0.20849609 C8.625 0.375 8.625 0.375 10.19921875 2.4909668 C15.55072921 13.31586286 19.32318917 24.93622901 23.20458984 36.3503418 C24.01519812 38.73215671 24.83341523 41.11126885 25.65234375 43.49023438 C26.17231779 45.01026527 26.69186601 46.53044191 27.2109375 48.05078125 C27.45460052 48.75898514 27.69826355 49.46718903 27.9493103 50.19685364 C29.625 55.14435173 29.625 55.14435173 29.625 57.375 C26.80141398 58.78679301 24.33414537 58.65879289 21.1875 58.75 C20.03378906 58.79898438 18.88007813 58.84796875 17.69140625 58.8984375 C14.625 58.375 14.625 58.375 12.83984375 56.2265625 C11.60950261 53.3386235 10.61766968 50.35300905 9.625 47.375 C3.355 47.375 -2.915 47.375 -9.375 47.375 C-10.014375 49.004375 -10.65375 50.63375 -11.3125 52.3125 C-13.25 57.25 -13.25 57.25 -14.375 58.375 C-16.35119447 58.50014928 -18.33238173 58.5507276 -20.3125 58.5625 C-21.39402344 58.57667969 -22.47554687 58.59085938 -23.58984375 58.60546875 C-26.375 58.375 -26.375 58.375 -28.375 56.375 C-28.04610582 50.26238131 -25.97370866 44.73085891 -23.9375 39 C-23.59130615 38.01499512 -23.2451123 37.02999023 -22.88842773 36.01513672 C-10.12706655 0.18202244 -10.12706655 0.18202244 0 0 Z " fill="#64CBEB" transform="translate(262.375,580.625)"/>
<path d="M0 0 C2.56049574 1.45244495 4.4076573 2.62832754 6.00390625 5.13671875 C6.09686912 8.66930769 4.74195128 10.70205972 2.62890625 13.38671875 C0.00390625 16.13671875 0.00390625 16.13671875 -2.99609375 17.13671875 C-3.59421875 16.49734375 -4.19234375 15.85796875 -4.80859375 15.19921875 C-8.43392474 11.78104953 -12.02332206 11.80131366 -16.7734375 11.84765625 C-20.08910557 12.27886791 -21.74366193 13.74777591 -23.99609375 16.13671875 C-27.38586088 21.22136944 -26.55487686 27.20135185 -25.99609375 33.13671875 C-24.83470588 36.48319205 -23.0377136 38.31830315 -20.24609375 40.51171875 C-16.78928267 41.47194405 -13.52001755 41.71274476 -9.99609375 41.13671875 C-6.64856817 39.32292883 -6.64856817 39.32292883 -3.99609375 37.13671875 C-3.33609375 36.80671875 -2.67609375 36.47671875 -1.99609375 36.13671875 C4.19637487 40.82291122 4.19637487 40.82291122 6.00390625 44.13671875 C6.12890625 46.57421875 6.12890625 46.57421875 5.00390625 49.13671875 C-1.73554555 55.56227828 -9.41626316 56.66969517 -18.453125 56.5078125 C-25.6533587 55.75365351 -30.86911506 52.65117254 -35.87109375 47.51171875 C-41.59341841 40.28779116 -43.74142471 32.1916649 -43.375 23.0546875 C-42.27622015 14.59294989 -38.42245381 7.72108944 -31.99609375 2.13671875 C-22.47800196 -4.86137736 -10.5356424 -4.94671843 0 0 Z " fill="#65CCEB" transform="translate(418.99609375,582.86328125)"/>
<path d="M0 0 C1.91759985 1.33742229 3.4887469 2.59297196 4.98828125 4.38671875 C5.08930583 8.12462829 3.60286171 10.10671449 1.17578125 12.76171875 C-0.34375 14.34765625 -0.34375 14.34765625 -2.01171875 15.38671875 C-4.65712028 15.08565626 -5.73429565 14.64359199 -7.69921875 12.82421875 C-11.31670069 10.57551376 -14.86609459 10.84534028 -19.01171875 11.38671875 C-23.28646478 13.15237472 -24.95665076 15.31121874 -27.01171875 19.38671875 C-27.87569325 25.68018006 -27.91746891 32.13415819 -24.01171875 37.38671875 C-20.59081309 40.31892361 -17.49872111 40.90183935 -13 40.7578125 C-9.81757298 40.16384282 -7.59023664 38.26200449 -5.01171875 36.38671875 C-1.01171875 36.38671875 -1.01171875 36.38671875 0.7265625 37.7421875 C1.50580078 38.64904297 1.50580078 38.64904297 2.30078125 39.57421875 C2.83316406 40.16589844 3.36554687 40.75757813 3.9140625 41.3671875 C4.98828125 43.38671875 4.98828125 43.38671875 4.92578125 45.921875 C3.74308795 49.03137281 2.47773415 49.89409665 -0.32421875 51.63671875 C-1.10410156 52.136875 -1.88398437 52.63703125 -2.6875 53.15234375 C-9.4783639 56.75892021 -18.65283772 56.64555889 -25.90625 54.55078125 C-33.35539875 51.14087906 -37.97534092 45.99964716 -41.94921875 38.94921875 C-44.53353304 30.74117651 -44.60506601 19.62842638 -40.94921875 11.76171875 C-31.94098157 -3.07537778 -15.78893934 -8.83649882 0 0 Z " fill="#66CCEC" transform="translate(591.01171875,583.61328125)"/>
<path d="M0 0 C4.03566197 2.57595445 6.76937005 5.53874011 8.9375 9.875 C9.83466962 18.69289565 9.12377231 25.58002356 3.9375 32.875 C0.74600054 36.69505431 -2.57881599 40.31690721 -6.0625 43.875 C-4.99128906 43.92398438 -3.92007813 43.97296875 -2.81640625 44.0234375 C-1.41924361 44.09845294 -0.0221095 44.1740013 1.375 44.25 C2.08205078 44.2809375 2.78910156 44.311875 3.51757812 44.34375 C5.32989188 44.44780629 7.13567988 44.65419892 8.9375 44.875 C10.4496867 47.89937339 10.11013369 50.53741534 9.9375 53.875 C8.92578125 56.1015625 8.92578125 56.1015625 7.9375 57.875 C3.11369198 57.8996519 -1.71007967 57.91783693 -6.53393555 57.92993164 C-8.17619464 57.93497174 -9.81844923 57.94180378 -11.46069336 57.95043945 C-13.81625479 57.96251926 -16.17175709 57.96823139 -18.52734375 57.97265625 C-19.26589096 57.97781754 -20.00443817 57.98297882 -20.7653656 57.98829651 C-22.53148088 57.9884925 -24.29747146 57.93694719 -26.0625 57.875 C-27.0625 56.875 -27.0625 56.875 -27.5625 53.375 C-27.43854906 46.39656187 -22.03951362 41.96706188 -17.51171875 37.17578125 C-9.1905825 28.7713459 -9.1905825 28.7713459 -6.05859375 17.76171875 C-6.29672149 15.62887552 -6.29672149 15.62887552 -7.0625 12.875 C-11.56038849 11.82897942 -13.89781294 11.95283674 -18.0625 13.875 C-20.5625 14.75 -20.5625 14.75 -23.0625 14.875 C-26.32844292 12.94512464 -27.78949456 11.79901842 -28.875 8.125 C-28.936875 7.3825 -28.99875 6.64 -29.0625 5.875 C-20.73272536 -1.22980778 -10.66825863 -3.94772566 0 0 Z " fill="#65CBEB" transform="translate(677.0625,581.125)"/>
<path d="M0 0 C0.91442368 -0.00637985 1.82884735 -0.0127597 2.77098083 -0.01933289 C3.76573929 -0.02044571 4.76049774 -0.02155853 5.78540039 -0.02270508 C6.80026016 -0.02603348 7.81511993 -0.02936188 8.86073303 -0.03279114 C11.01196844 -0.03786483 13.16321174 -0.04019933 15.31445312 -0.04003906 C18.615447 -0.04222467 21.91610639 -0.0603734 25.21704102 -0.0793457 C27.30232632 -0.08227964 29.38761323 -0.08426443 31.47290039 -0.08520508 C32.46563461 -0.09239059 33.45836884 -0.09957611 34.48118591 -0.10697937 C35.39876175 -0.10390274 36.31633759 -0.10082611 37.26171875 -0.09765625 C38.07144638 -0.09908127 38.88117401 -0.10050629 39.71543884 -0.10197449 C41.69555664 0.14526367 41.69555664 0.14526367 43.69555664 2.14526367 C44.2628822 9.29356569 44.2628822 9.29356569 42.62207031 11.75683594 C39.66791254 13.88588109 37.08649913 13.43125291 33.50805664 13.33276367 C32.23575195 13.30569336 30.96344727 13.27862305 29.65258789 13.25073242 C28.18885742 13.19852539 28.18885742 13.19852539 26.69555664 13.14526367 C26.70079346 14.44262451 26.70603027 15.73998535 26.71142578 17.07666016 C26.72947133 21.87173782 26.74098701 26.66681247 26.75048828 31.46191406 C26.75552952 33.54069523 26.76236238 35.61947284 26.77099609 37.69824219 C26.78307086 40.67928953 26.78878688 43.66029016 26.79321289 46.64135742 C26.79837418 47.57676865 26.80353546 48.51217987 26.80885315 49.47593689 C26.80892868 50.33675369 26.80900421 51.1975705 26.80908203 52.08447266 C26.81130264 52.84614243 26.81352325 53.60781219 26.81581116 54.39256287 C26.69555664 56.14526367 26.69555664 56.14526367 25.69555664 57.14526367 C23.53074867 57.24419307 21.36261879 57.27497468 19.19555664 57.27026367 C18.00961914 57.2728418 16.82368164 57.27541992 15.60180664 57.27807617 C12.69555664 57.14526367 12.69555664 57.14526367 11.69555664 56.14526367 C11.60277334 54.76366253 11.57808621 53.3773833 11.58203125 51.99267578 C11.58210678 51.11183823 11.58218231 50.23100067 11.58226013 49.32347107 C11.59000206 47.88754356 11.59000206 47.88754356 11.59790039 46.42260742 C11.59931534 45.44739639 11.60073029 44.47218536 11.60218811 43.46742249 C11.60780531 40.33917224 11.62036071 37.21099244 11.63305664 34.08276367 C11.63806943 31.96753033 11.64263271 29.85229587 11.64672852 27.73706055 C11.65778033 22.53977071 11.67453518 17.34252222 11.69555664 12.14526367 C10.5521582 12.15686523 9.40875977 12.1684668 8.23071289 12.18041992 C6.7398291 12.18979655 5.24894355 12.19889688 3.75805664 12.20776367 C2.6259375 12.22033203 2.6259375 12.22033203 1.47094727 12.2331543 C-0.45438649 12.24178808 -2.37979917 12.197507 -4.30444336 12.14526367 C-5.30444336 11.14526367 -5.30444336 11.14526367 -5.43725586 8.89526367 C-5.43467773 7.98776367 -5.43209961 7.08026367 -5.42944336 6.14526367 C-5.43202148 5.23776367 -5.43459961 4.33026367 -5.43725586 3.39526367 C-5.20434823 -0.55046552 -3.50940906 0.01653681 0 0 Z " fill="#67CDEC" transform="translate(448.304443359375,580.854736328125)"/>
<path d="M0 0 C1.093125 0.00257813 2.18625 0.00515625 3.3125 0.0078125 C4.405625 0.00523437 5.49875 0.00265625 6.625 0 C9.3125 0.1328125 9.3125 0.1328125 10.3125 1.1328125 C10.41131593 2.84600196 10.44048969 4.56326053 10.44189453 6.27929688 C10.44504669 7.37713501 10.44819885 8.47497314 10.45144653 9.6060791 C10.4494223 10.80083862 10.44739807 11.99559814 10.4453125 13.2265625 C10.44626923 14.44355835 10.44722595 15.6605542 10.44821167 16.91442871 C10.44889372 19.49357149 10.44703772 22.07271597 10.44287109 24.65185547 C10.43752322 28.61559886 10.44281529 32.57922892 10.44921875 36.54296875 C10.44855797 39.04166692 10.44727682 41.54036502 10.4453125 44.0390625 C10.44733673 45.23382202 10.44936096 46.42858154 10.45144653 47.6595459 C10.44829437 48.75738403 10.44514221 49.85522217 10.44189453 50.98632812 C10.44070114 52.44407654 10.44070114 52.44407654 10.43948364 53.93127441 C10.3125 56.1328125 10.3125 56.1328125 9.3125 57.1328125 C7.12610547 57.20540196 4.93749611 57.21655033 2.75 57.1953125 C0.95369141 57.18177734 0.95369141 57.18177734 -0.87890625 57.16796875 C-1.80574219 57.15636719 -2.73257813 57.14476562 -3.6875 57.1328125 C-3.71062916 49.84859702 -3.72841801 42.5643894 -3.73931217 35.28014469 C-3.74453975 31.89809437 -3.75163511 28.5160691 -3.76293945 25.1340332 C-3.77584267 21.24951473 -3.78072924 17.36500653 -3.78515625 13.48046875 C-3.79031754 12.26069839 -3.79547882 11.04092804 -3.80079651 9.78419495 C-3.80087204 8.66310837 -3.80094757 7.54202179 -3.80102539 6.38696289 C-3.803246 5.39434952 -3.80546661 4.40173615 -3.80775452 3.37904358 C-3.6312923 0.08291031 -3.32818807 0.16447441 0 0 Z " fill="#67CEED" transform="translate(517.6875,580.8671875)"/>
<path d="M0 0 C2.52810681 -0.27314479 5.02664787 -0.46860383 7.5625 -0.625 C8.61920898 -0.75068359 8.61920898 -0.75068359 9.69726562 -0.87890625 C12.11472769 -0.99031003 13.72962814 -0.86420781 16 0 C18.91949629 2.97369823 20.8926483 6.42401418 23 10 C24.24403617 11.93269613 25.49278543 13.86236621 26.74609375 15.7890625 C27.97891911 17.73288238 29.20938066 19.67820341 30.4375 21.625 C31.07365234 22.62917969 31.70980469 23.63335937 32.36523438 24.66796875 C33.9122684 27.11065406 35.45715132 29.55466986 37 32 C40.76389108 30.31491069 42.45157416 28.22800606 45 25 C45.66 25 46.32 25 47 25 C56.67812075 44.14482625 56.67812075 44.14482625 59 50 C58.505 50.99 58.505 50.99 58 52 C53.71 47.38 49.42 42.76 45 38 C42.85200113 40.8639985 41.57958644 42.61245262 40.3125 45.75 C39.879375 46.8225 39.44625 47.895 39 49 C38.34 49 37.68 49 37 49 C35.62084324 47.34501189 34.32349612 45.62169626 33.0625 43.875 C32.24752235 42.76197338 31.43105493 41.65003641 30.61328125 40.5390625 C30.1848291 39.95543945 29.75637695 39.37181641 29.31494141 38.77050781 C27.17644668 35.89112353 24.96858353 33.06790699 22.75 30.25 C22.29947266 29.67757568 21.84894531 29.10515137 21.38476562 28.51538086 C16.59965823 22.45995722 11.72685295 16.47576971 6.84765625 10.49609375 C6.36055176 9.89651855 5.87344727 9.29694336 5.37158203 8.67919922 C4.13323807 7.16312059 2.87813819 5.66076595 1.62109375 4.16015625 C0 2 0 2 0 0 Z " fill="#014F6F" transform="translate(412,429)"/>
<path d="M0 0 C3.75 0.375 3.75 0.375 6.625 2.5625 C10.08605037 7.14330196 9.9266845 11.68553568 10 17.3125 C10.02578125 18.49714844 10.0515625 19.68179688 10.078125 20.90234375 C9.65083605 25.4244851 8.01541834 28.56725951 5.4375 32.25 C2.72746424 34.05669051 0.92296619 33.88267459 -2.25 33.375 C-5.35164769 30.82475635 -6.97566416 29.19800753 -8.25 25.375 C-8.52353832 22.44229194 -8.52719904 19.5066004 -8.5625 16.5625 C-8.59150391 15.76779297 -8.62050781 14.97308594 -8.65039062 14.15429688 C-8.7104236 8.57122983 -7.80421572 5.7039396 -4.25 1.375 C-3.25 0.375 -3.25 0.375 0 0 Z " fill="#015070" transform="translate(768.25,592.625)"/>
<path d="M0 0 C2.14151917 1.62477209 2.89935883 2.49951418 3.43359375 5.15625 C3.44398254 11.38952401 3.44398254 11.38952401 1.5 14.0625 C-2.08540584 15.40702719 -5.23089803 15.80931637 -9 15 C-11.5625 12.9375 -11.5625 12.9375 -13 10 C-13.07481382 5.73561227 -12.64839572 3.76281849 -9.875 0.5 C-6.08386986 -1.47798094 -4.07202027 -1.13111674 0 0 Z " fill="#67CEEC" transform="translate(722,624)"/>
<path d="M0 0 C1.8975 -0.061875 3.795 -0.12375 5.75 -0.1875 C7.35101563 -0.23970703 7.35101563 -0.23970703 8.984375 -0.29296875 C12.34503863 0.03352059 13.67828434 0.57854477 16 3 C16.73385013 8.87080103 16.73385013 8.87080103 14.890625 11.70703125 C10.82315564 14.48870967 4.65906496 13.13838807 0 13 C0 8.71 0 4.42 0 0 Z " fill="#005373" transform="translate(327,593)"/>
<path d="M0 0 C4.56923077 4.56923077 4.56923077 4.56923077 6.3125 8.0625 C6.65925781 8.73410156 7.00601563 9.40570313 7.36328125 10.09765625 C8 12 8 12 7 15 C5.68 12.36 4.36 9.72 3 7 C2.67 20.2 2.34 33.4 2 47 C1.01 47.495 1.01 47.495 0 48 C0 32.16 0 16.32 0 0 Z " fill="#3BB4E5" transform="translate(511,321)"/>
<path d="M0 0 C2.61167103 2.61167103 3.07131482 4.9721059 4.125 8.5 C4.47820312 9.6653125 4.83140625 10.830625 5.1953125 12.03125 C6 15 6 15 6 17 C2.37 17 -1.26 17 -5 17 C-1.85714286 5.28571429 -1.85714286 5.28571429 0 0 Z " fill="#054F6E" transform="translate(262,597)"/>
<path d="M0 0 C3.96 0 7.92 0 12 0 C12.33 0.66 12.66 1.32 13 2 C9.37 2 5.74 2 2 2 C2 5.3 2 8.6 2 12 C4.413125 11.814375 4.413125 11.814375 6.875 11.625 C7.77992188 11.55539062 8.68484375 11.48578125 9.6171875 11.4140625 C12.17941903 11.20431868 12.17941903 11.20431868 14 9 C14.69748583 7.68252676 15.36959957 6.35085807 16 5 C16.3610729 9.45323246 16.3610729 9.45323246 14.90625 11.65625 C10.85739079 14.51036387 4.68066206 13.13902957 0 13 C0 8.71 0 4.42 0 0 Z " fill="#0C506F" transform="translate(327,593)"/>
<path d="M0 0 C2.34503854 0.05333317 4.69009067 0.1060724 7.03515625 0.15820312 C12.73194559 0.28612066 18.4285234 0.42137216 24.125 0.5625 C24.125 0.8925 24.125 1.2225 24.125 1.5625 C2.78213176 2.33464649 -18.51806889 2.70845737 -39.875 2.5625 C-39.875 1.9025 -39.875 1.2425 -39.875 0.5625 C-26.59224436 -0.88206369 -13.32920439 -0.3304528 0 0 Z " fill="#33A9D8" transform="translate(436.875,427.4375)"/>
<path d="M0 0 C1 2 1 2 0.36328125 4.34765625 C-0.15685547 5.69150391 -0.15685547 5.69150391 -0.6875 7.0625 C-1.02136719 7.96097656 -1.35523438 8.85945313 -1.69921875 9.78515625 C-3 12 -3 12 -5.00390625 12.7109375 C-5.99197266 12.85402344 -5.99197266 12.85402344 -7 13 C-9.2072358 14.48800372 -9.2072358 14.48800372 -11 16 C-9.32076975 12.19866558 -6.88537166 9.02917298 -4.375 5.75 C-3.95476562 5.19570313 -3.53453125 4.64140625 -3.1015625 4.0703125 C-2.07061281 2.71133337 -1.03570089 1.35536165 0 0 Z " fill="#3AB4E3" transform="translate(468,373)"/>
<path d="M0 0 C-1.57885446 3.80521664 -3.98693902 6.28658415 -6.875 9.1875 C-7.73867188 10.06792969 -8.60234375 10.94835937 -9.4921875 11.85546875 C-11.83068813 13.85521462 -13.00519208 14.64480185 -16 15 C-3.5 0 -3.5 0 0 0 Z " fill="#6ED7F2" transform="translate(435,285)"/>
<path d="M0 0 C0 0.33 0 0.66 0 1 C-10.35476854 1.70201821 -20.61675986 2.14809693 -31 2 C-31 1.34 -31 0.68 -31 0 C-20.50588146 -1.08101063 -10.48947132 -0.82544266 0 0 Z " fill="#1C83AB" transform="translate(428,428)"/>
<path d="M0 0 C1.19126781 3.57380342 0.7349445 5.50883302 0.0625 9.1875 C-0.13214844 10.27417969 -0.32679688 11.36085938 -0.52734375 12.48046875 C-0.68332031 13.31191406 -0.83929687 14.14335937 -1 15 C-1.66 13.68 -2.32 12.36 -3 11 C-3.99 11.99 -4.98 12.98 -6 14 C-4.50829734 9.0276578 -2.39542583 4.58154261 0 0 Z " fill="#3CB7E6" transform="translate(565,434)"/>
<path d="M0 0 C5.28 0 10.56 0 16 0 C16 0.33 16 0.66 16 1 C15.03578125 0.99097656 14.0715625 0.98195313 13.078125 0.97265625 C6.13300075 0.77654968 6.13300075 0.77654968 0.1796875 3.625 C-1.04885516 5.74253253 -1.04885516 5.74253253 -2 9 C-2.33 8.01 -2.66 7.02 -3 6 C-2.01 4.02 -1.02 2.04 0 0 Z " fill="#77E1F9" transform="translate(254,581)"/>
<path d="M0 0 C0.66 0.33 1.32 0.66 2 1 C-1.72346836 5.42094803 -5.29521038 9.57833482 -10 13 C-8.48446596 9.52224821 -6.4226544 7.0442016 -3.875 4.25 C-3.15054687 3.45078125 -2.42609375 2.6515625 -1.6796875 1.828125 C-0.84824219 0.92320312 -0.84824219 0.92320312 0 0 Z " fill="#3BB5E4" transform="translate(475,413)"/>
<path d="M0 0 C2 1.375 2 1.375 4 3 C4 3.66 4 4.32 4 5 C5.32 5.66 6.64 6.32 8 7 C8 7.99 8 8.98 8 10 C7.01 10 6.02 10 5 10 C3.61328125 8.3203125 3.61328125 8.3203125 2.3125 6.125 C1.87550781 5.40570313 1.43851563 4.68640625 0.98828125 3.9453125 C0 2 0 2 0 0 Z " fill="#32A6D2" transform="translate(518,430)"/>
<path d="M0 0 C0.33 0.66 0.66 1.32 1 2 C-1.31 4.64 -3.62 7.28 -6 10 C-6.66 9.67 -7.32 9.34 -8 9 C-5.36 6.03 -2.72 3.06 0 0 Z " fill="#024464" transform="translate(446,364)"/>
<path d="M0 0 C0.33 0.66 0.66 1.32 1 2 C-0.98 4.31 -2.96 6.62 -5 9 C-5.33 8.34 -5.66 7.68 -6 7 C-4.02 4.69 -2.04 2.38 0 0 Z " fill="#70DAF5" transform="translate(755,584)"/>
</svg>
